<svg width="379" height="195" viewBox="0 0 379 195" fill="none" xmlns="http://www.w3.org/2000/svg">
<g clip-path="url(#clip0_53_1615)">
<path d="M58.9629 105.027V97.5188H32.3286V141.581H40.2478V123.308H57.0868V115.798H40.2478V105.029H58.9629V105.027Z" fill="#026FB4"/>
<path d="M114.994 133.541C113.666 134.507 111.07 134.712 109.948 133.338C109.084 132.451 108.976 131.195 108.951 129.952V118.775H115.991V112.207H108.951V102.918H101.267V107.161C101.267 109.948 99.008 112.207 96.2205 112.207V118.775H101.267V131.341C101.267 134.653 102.182 137.21 104.024 139.006C107.282 142.336 113.167 142.118 117.164 140.291L114.994 133.541Z" fill="#026FB4"/>
<path d="M141.63 112.205C141.488 114.669 142.026 127.142 141.191 129.29C140.641 131.233 139.553 132.845 137.846 133.806C135.9 134.955 132.398 134.621 131.037 132.986C130.118 131.989 129.66 130.454 129.66 128.383V112.207H121.975V129.319C121.975 133.035 122.864 136.006 124.644 138.237C127.141 141.748 134.022 142.603 137.99 140.319C139.809 139.323 141.24 137.843 142.098 135.984V141.581H149.315V112.205H141.628H141.63Z" fill="#026FB4"/>
<path d="M82.9611 112.205C82.819 114.669 83.3572 127.142 82.5215 129.29C81.9719 131.233 80.8842 132.845 79.1768 133.806C77.2325 134.955 73.7287 134.621 72.3681 132.986C71.449 131.989 70.9923 130.454 70.9923 128.383V112.207H63.3062V129.319C63.3062 133.035 64.1968 136.006 65.9743 138.237C68.472 141.748 75.3527 142.603 79.3208 140.319C81.14 139.323 82.5708 137.843 83.4292 135.984V141.581H90.6453V112.205H82.9592H82.9611Z" fill="#026FB4"/>
<path d="M163.826 118.114V112.207H156.686V141.583H164.289C164.444 139.211 163.853 126.23 164.782 124.339C166.064 119.92 170.832 118.248 174.797 120.16L176.828 113.371C172.424 110.515 165.545 113.202 163.826 118.116V118.114Z" fill="#026FB4"/>
<path d="M192.483 112.205C179.413 112.114 173.478 128.438 182.297 137.416C186.735 142.123 195.439 142.887 200.671 139.497C202.829 138.112 204.544 136.291 205.82 134.039L199.686 131C196.474 137.344 186.174 136.057 185.393 128.58H206.157C207.165 119.707 201.912 112.035 192.483 112.205ZM185.79 123.35C187.465 116.584 197.959 116.448 199.123 123.35H185.79Z" fill="#026FB4"/>
<path d="M239.808 124.236C237.764 118.786 231.859 116.6 226.642 114.957C223.166 113.609 219.911 112.571 219.748 109.183C219.782 106.177 222.871 104.796 225.765 104.822C228.349 104.792 230.053 105.842 231.321 107.699L238.2 104.286C235.035 98.0305 226.433 96.1336 220.076 98.4342C212.157 101.025 209.198 111.112 215.281 117.017C219.339 121.402 226.464 121.633 230.856 125.146C232.691 126.581 233.163 129.23 232.122 131.216C230.98 133.234 228.478 134.03 226.233 134.037C223.267 134.073 221.09 132.739 219.604 130.463L212.384 134.037C220.445 147.812 245.478 141.591 239.812 124.238H239.808V124.236Z" fill="#026FB4"/>
<path d="M275.061 141.583H265.656L257.792 128.97L246.701 141.583V97.517H254.389V121.464L262.526 112.205H272.527L262.869 123.196L275.061 141.583Z" fill="#026FB4"/>
<path d="M286.543 112.207H278.855V141.581H286.543V112.207Z" fill="#026FB4"/>
<path d="M294.172 101.33V141.581L301.851 137.772V97.5208L294.172 101.328V101.33Z" fill="#026FB4"/>
<path d="M309.008 101.33V141.581L316.696 137.772V97.5208L309.008 101.328V101.33Z" fill="#026FB4"/>
<path d="M344.636 127.259C343.262 125.775 341.17 124.695 338.358 124.026L334.138 123.007C332.504 122.457 330.598 122.186 330.477 120.473C330.477 119.797 330.873 119.245 331.659 118.817C334.304 117.403 338.413 118.313 339.764 121.265L345.904 118.218C343.249 112.47 335.756 111.296 330.113 112.793C323.751 114.348 320.662 121.58 325.868 126.215C327.272 127.447 329.273 128.303 331.043 128.686C332.842 129.097 337.174 129.857 338.333 130.801C339.658 131.743 339.688 133.501 338.13 134.375C337.348 134.864 336.273 135.106 334.92 135.106C332.114 135.089 329.957 133.552 328.79 130.884C328.773 130.894 322.495 134.007 322.47 134.017L322.362 134.072C325.478 141.909 337.098 143.876 343.448 138.853C347.101 136.116 347.861 130.57 344.636 127.255V127.259Z" fill="#026FB4"/>
<path d="M291.271 95.4268C290.215 95.4135 289.194 94.864 288.627 93.8843C288.084 92.9406 288.093 91.8301 288.555 90.9262C287.617 90.0924 286.505 89.4519 285.273 89.0748C284.718 89.9105 283.772 90.4581 282.698 90.4581C281.623 90.4581 280.676 89.9105 280.123 89.0748C278.891 89.4519 277.779 90.0924 276.841 90.9262C277.301 91.8301 277.312 92.9406 276.768 93.8843C276.204 94.864 275.18 95.4135 274.125 95.4268C273.96 96.0995 273.862 96.8026 273.862 97.5284C273.862 98.095 273.92 98.6464 274.023 99.1846C275.112 99.1619 276.183 99.719 276.767 100.729C277.371 101.777 277.292 103.028 276.668 103.975C277.589 104.834 278.688 105.501 279.91 105.908C280.411 104.87 281.468 104.153 282.696 104.153C283.924 104.153 284.981 104.87 285.48 105.908C286.704 105.501 287.803 104.835 288.722 103.975C288.101 103.03 288.021 101.777 288.626 100.731C289.207 99.719 290.278 99.1619 291.369 99.1846C291.47 98.6464 291.529 98.095 291.529 97.5284C291.529 96.8026 291.432 96.0995 291.267 95.4268H291.271ZM282.698 100.706C280.92 100.706 279.482 99.2661 279.482 97.4905C279.482 95.7148 280.92 94.2746 282.698 94.2746C284.475 94.2746 285.914 95.7148 285.914 97.4905C285.914 99.2661 284.474 100.706 282.698 100.706Z" fill="#026FB4"/>
<path d="M41.2902 77.4602C44.6444 76.4256 45.4497 71.6729 42.9521 69.4292C41.9971 68.5916 40.6573 68.169 38.9366 68.169H32.3307V82.8269H35.5105V77.9965H38.0081L41.2428 82.8288H44.9608L41.2902 77.4602ZM38.7301 75.1881H35.5105V71.0381H38.6713C40.104 71.0438 41.167 71.616 41.167 73.1036C41.1803 74.4964 40.1475 75.209 38.7301 75.1881Z" fill="#026FB4"/>
<path d="M64.7427 68.2107L61.7486 78.0401L58.5081 68.1709H55.7831L52.5427 78.0401L49.5486 68.2107H46.1432L51.0759 82.8288H53.8426L57.1058 73.3329L60.3671 82.8288H63.1357L68.0665 68.2107H64.7427Z" fill="#026FB4"/>
<path d="M76.3761 68.169H73.4445L67.2517 82.7245H70.4921L71.8129 79.4841H77.9243L79.2432 82.7245H82.569L76.3742 68.169H76.3761ZM72.948 76.6776L74.8696 71.9894L76.7911 76.6776H72.948Z" fill="#026FB4"/>
<path d="M94.5056 68.169V77.1949L87.7328 68.169H84.8013V82.8269H87.9413V73.5091L94.9395 82.8269H97.6418V68.169H94.5056Z" fill="#026FB4"/>
<path d="M109.889 68.7243C107.943 67.8261 103.177 68.2657 101.019 68.1691V82.8307H106.738C109.825 82.861 112.781 81.2446 113.963 78.3907C115.557 74.7239 113.761 70.0508 109.889 68.7243ZM106.738 79.9199H104.246V71.0798H106.738C109.23 70.985 111.237 73.0221 111.157 75.5008C111.259 77.9984 109.237 80.0242 106.738 79.9199Z" fill="#026FB4"/>
<path d="M125.14 68.169H122.209L116.016 82.8269H119.256L120.577 79.5618H126.688L128.007 82.8269H131.333L125.138 68.169H125.14ZM121.712 76.7363L123.634 72.014L125.555 76.7363H121.712Z" fill="#026FB4"/>
<path d="M43.1472 159.093V156.273H32.3362V170.96H35.461V165.22H42.2338V162.4H35.461V159.093H43.1472Z" fill="#026FB4"/>
<path d="M52.5806 156.273C45.9613 156.116 42.4783 164.162 47.1324 168.818C50.6685 172.44 57.6762 171.293 59.5371 166.466C61.6311 161.589 57.9112 156.141 52.5806 156.273ZM48.2789 163.615C48.3168 157.67 56.7553 157.725 56.8386 163.615C56.7988 169.559 48.3604 169.51 48.2789 163.615Z" fill="#026FB4"/>
<path d="M71.6878 165.402C72.5937 165.062 73.327 164.534 73.8879 163.808C74.4508 163.084 74.7293 162.148 74.7293 160.999V160.958C74.7293 159.483 74.2594 158.333 73.3194 157.509C72.3795 156.683 71.0625 156.27 69.374 156.27H62.8818V170.956H66.0066V165.925H68.4588L71.8281 170.956H75.4854L71.6859 165.4H71.6878V165.402ZM71.5666 161.162C71.5666 161.769 71.3581 162.258 70.9488 162.623C70.5357 162.987 69.9444 163.169 69.1732 163.169H66.0104V159.091H69.1144C69.8857 159.091 70.4864 159.262 70.9185 159.599C71.3524 159.936 71.5685 160.444 71.5685 161.119V161.16L71.5666 161.162Z" fill="#026FB4"/>
<path d="M86.5598 156.273V164.67C86.5598 165.805 86.2888 166.658 85.7488 167.224C85.2068 167.793 84.4564 168.077 83.4975 168.077C82.5386 168.077 81.7863 167.784 81.2444 167.196C80.7024 166.607 80.4333 165.731 80.4333 164.57V156.273H77.3103V164.651C77.3103 166.745 77.858 168.322 78.9533 169.377C80.0486 170.433 81.5494 170.96 83.4577 170.96C84.4052 170.96 85.2636 170.827 86.033 170.563C86.8043 170.298 87.46 169.9 88.0019 169.366C88.542 168.831 88.957 168.166 89.2488 167.367C89.5388 166.569 89.6828 165.629 89.6828 164.547V156.271H86.5598V156.273Z" fill="#026FB4"/>
<path d="M103.717 156.273L99.9859 162.279L96.2547 156.273H92.8872V170.96H95.9704V161.263L99.9253 167.266H100.007L104.003 161.202V170.96H107.088V156.273H103.717Z" fill="#026FB4"/>
<path d="M223.468 37.8131C200.425 37.8131 180.667 52.0976 172.568 72.2737C167.192 72.539 165.653 79.8233 170.461 82.2698C176.214 85.0327 181.031 77.3068 176.049 73.3557C183.825 50.6365 208.077 35.0938 232.918 38.7701H233.672C230.368 38.1409 226.957 37.815 223.468 37.815V37.8131ZM174.139 80.1929C171.698 81.4815 168.913 78.6844 170.198 76.2228C171.107 74.2482 174.05 74.0455 175.242 75.8344C175.42 76.0674 175.553 76.3308 175.646 76.6189C176.118 77.9643 175.43 79.6054 174.139 80.1929Z" fill="#23AF57"/>
<path d="M282.514 82.8345H282.404C277.13 51.1103 249.479 26.8334 216.278 26.8334C183.078 26.8334 155.422 51.1065 150.154 82.8307H145.593C150.652 49.6057 179.432 24.0819 214.055 24.0819C248.679 24.0819 277.451 49.6076 282.516 82.8345H282.514Z" fill="#026FB4"/>
<path d="M219.1 47.3487C217.518 40.8735 208.151 42.7913 209.166 49.3233C195.092 55.1524 184.459 67.6423 181.211 82.8345H185.306C187.872 68.6978 197.12 56.8616 209.65 50.7218C212.452 55.9085 220.233 53.0679 219.1 47.3487ZM216.076 50.3258C214.47 52.0237 211.404 50.8109 211.421 48.4611C211.323 46.9754 212.659 45.6224 214.141 45.6546C216.5 45.5826 217.817 48.6847 216.076 50.3258Z" fill="#00A9DE"/>
<path d="M265.296 53.5113H265.086C254.315 40.7958 238.226 32.7288 220.25 32.7288C209.79 32.7288 199.966 35.4576 191.463 40.252C191.098 39.4352 190.609 38.6658 189.987 37.9666C198.39 33.5834 207.948 31.1124 218.082 31.1124C237.123 31.1124 254.121 39.8407 265.296 53.5113Z" fill="#EC2227"/>
<path d="M187.652 42.9997C185.231 36.5681 175.894 39.9961 178.124 46.4429C167.571 55.628 160.194 68.3832 157.901 82.8307H162.167C164.234 69.5259 170.762 57.6973 180.175 48.914C184.15 51.4495 189.21 47.4075 187.651 42.9997H187.652ZM184.795 46.5509C184.103 47.2654 183.01 47.5269 182.066 47.235C180.995 46.9337 180.179 45.8972 180.131 44.7791C179.947 42.8708 182.057 41.3207 183.823 42.0598C185.651 42.6965 186.197 45.2055 184.795 46.5509Z" fill="#EC2227"/>
</g>
<defs>
<clipPath id="clip0_53_1615">
<rect width="379" height="194.304" fill="white" transform="translate(0 0.369812)"/>
</clipPath>
</defs>
</svg>
