<svg width="80" height="35" viewBox="0 0 80 35" fill="none" xmlns="http://www.w3.org/2000/svg">
<path d="M45.5 8.39307C32.0366 8.39307 20.493 16.7391 15.7609 28.5273C12.6198 28.6823 11.7208 32.9384 14.5297 34.3677C17.8911 35.982 20.7056 31.468 17.7948 29.1595C22.3376 15.8854 36.5074 6.80425 51.0216 8.9522H51.4622C49.5313 8.58461 47.5383 8.39417 45.5 8.39417V8.39307ZM16.6788 33.1543C15.2527 33.9071 13.6251 32.2729 14.3758 30.8347C14.9073 29.681 16.6267 29.5625 17.3231 30.6077C17.4272 30.7439 17.5047 30.8978 17.559 31.0661C17.8347 31.8522 17.4327 32.811 16.6788 33.1543Z" fill="#23AF57"/>
<path d="M79.9989 34.6979H79.9347C76.8534 16.1625 60.6973 1.97824 41.2993 1.97824C21.9013 1.97824 5.74299 16.1602 2.66501 34.6957H0C2.9562 15.2833 19.7711 0.370605 40.0005 0.370605C60.23 0.370605 77.0405 15.2845 80 34.6979H79.9989Z" fill="#026FB4"/>
<path d="M42.9479 13.9644C42.0234 10.1811 36.5506 11.3016 37.144 15.1181C28.9209 18.5238 22.7085 25.8213 20.8108 34.6976H23.2034C24.7025 26.438 30.1056 19.5225 37.4264 15.9352C39.0639 18.9656 43.61 17.3059 42.9479 13.9644ZM41.1808 15.7038C40.243 16.6958 38.4516 15.9872 38.4616 14.6143C38.404 13.7463 39.1846 12.9557 40.0504 12.9746C41.4289 12.9325 42.1983 14.745 41.1808 15.7038Z" fill="#00A9DE"/>
<path d="M69.939 17.565H69.8161C63.5229 10.1358 54.1228 5.42246 43.62 5.42246C37.5083 5.42246 31.7686 7.01682 26.8007 9.81801C26.587 9.34081 26.3013 8.89129 25.9382 8.48273C30.8475 5.9218 36.4321 4.47803 42.3534 4.47803C53.4784 4.47803 63.4099 9.57774 69.939 17.565Z" fill="#EC2227"/>
<path d="M24.5741 11.423C23.1591 7.66524 17.704 9.66815 19.0072 13.4348C12.8412 18.8014 8.53095 26.2538 7.19125 34.6951H9.68353C10.8915 26.9215 14.7057 20.0104 20.2052 14.8786C22.528 16.36 25.4842 13.9984 24.573 11.423H24.5741ZM22.9045 13.4979C22.5004 13.9153 21.8615 14.0681 21.3101 13.8976C20.6846 13.7216 20.2074 13.1159 20.1797 12.4627C20.0723 11.3478 21.3046 10.4421 22.3365 10.8739C23.4049 11.2459 23.7238 12.7118 22.9045 13.4979Z" fill="#EC2227"/>
</svg>
